<?xml version="1.0" encoding="UTF-8"?>
<svg id="Capa_1" data-name="Capa 1" xmlns="http://www.w3.org/2000/svg" viewBox="0 0 1776.36 492.07">
  <defs>
    <style>
      .cls-1 {
        fill: #fff;
      }

      .cls-2 {
        fill: #fdc148;
      }

      .cls-3 {
        fill: #dd3354;
      }
    </style>
  </defs>
  <g>
    <path class="cls-2" d="M53.62,385.61c-22.43-5.78-40.31-13.06-53.62-21.82l27.34-58.88c12.62,8.06,27.86,14.64,45.74,19.71,17.87,5.08,35.4,7.62,52.57,7.62,34.7,0,52.05-8.58,52.05-25.76,0-8.06-4.73-13.84-14.2-17.35-9.46-3.5-24.01-6.48-43.63-8.94-23.13-3.5-42.24-7.53-57.3-12.09-15.07-4.55-28.13-12.62-39.17-24.18-11.04-11.57-16.56-28.04-16.56-49.42,0-17.87,5.16-33.73,15.51-47.58,10.33-13.84,25.41-24.62,45.21-32.33,19.8-7.71,43.19-11.57,70.18-11.57,19.98,0,39.86,2.19,59.67,6.57,19.79,4.39,36.18,10.43,49.15,18.14l-27.34,58.35c-24.89-14.01-52.04-21.03-81.49-21.03-17.53,0-30.67,2.45-39.43,7.36-8.77,4.91-13.14,11.22-13.14,18.92,0,8.77,4.73,14.9,14.2,18.4,9.46,3.51,24.53,6.83,45.21,9.99,23.13,3.86,42.05,7.98,56.78,12.35,14.72,4.39,27.51,12.35,38.38,23.92,10.86,11.57,16.29,27.69,16.29,48.36,0,17.53-5.26,33.12-15.77,46.79-10.51,13.67-25.85,24.27-46,31.81-20.16,7.53-44.08,11.3-71.76,11.3-23.48,0-46.44-2.89-68.87-8.67Z"/>
    <path class="cls-1" d="M694.2,121.18c21.56,12.09,38.46,29.1,50.73,51,12.27,21.91,18.4,47.4,18.4,76.49s-6.13,54.59-18.4,76.49c-12.27,21.91-29.18,38.9-50.73,51-21.56,12.09-45.47,18.14-71.76,18.14-36.1,0-64.49-11.38-85.16-34.17v131.95h-82.01V107.25h78.33v32.59c20.32-24.53,49.94-36.8,88.85-36.8,26.28,0,50.2,6.05,71.76,18.14ZM660.03,305.71c13.49-14.2,20.24-33.2,20.24-57.04s-6.75-42.84-20.24-57.04c-13.49-14.19-30.75-21.29-51.78-21.29s-38.29,7.1-51.78,21.29c-13.49,14.2-20.24,33.21-20.24,57.04s6.74,42.85,20.24,57.04c13.49,14.19,30.76,21.29,51.78,21.29s38.29-7.1,51.78-21.29Z"/>
    <path class="cls-1" d="M1093.47,271.8h-213.97c3.85,17.53,12.96,31.37,27.34,41.53,14.37,10.17,32.24,15.25,53.62,15.25,14.72,0,27.77-2.19,39.17-6.57,11.38-4.38,21.99-11.3,31.81-20.77l43.63,47.32c-26.64,30.49-65.54,45.74-116.71,45.74-31.9,0-60.11-6.22-84.64-18.66-24.54-12.44-43.46-29.7-56.77-51.78-13.33-22.08-19.98-47.13-19.98-75.18s6.57-52.65,19.71-74.91c13.14-22.25,31.19-39.6,54.15-52.04,22.95-12.44,48.63-18.66,77.02-18.66s52.75,5.96,75.18,17.87c22.42,11.92,40.04,29,52.83,51.26,12.79,22.26,19.19,48.1,19.19,77.54,0,1.05-.52,8.41-1.58,22.08ZM901.58,180.85c-12.62,10.51-20.33,24.89-23.13,43.11h139.31c-2.81-17.88-10.51-32.15-23.13-42.85-12.62-10.69-28.04-16.03-46.26-16.03s-34.17,5.26-46.79,15.77Z"/>
    <path class="cls-1" d="M1587.63,279.16l-39.43,38.9v72.02h-82.01V0h82.01v220.8l119.86-113.56h97.79l-117.76,119.86,128.27,162.97h-99.36l-89.37-110.93Z"/>
    <path class="cls-3" d="M1134.1,233.18h213.97c-3.85-17.53-12.96-31.37-27.34-41.53-14.37-10.17-32.24-15.25-53.62-15.25-14.72,0-27.77,2.19-39.17,6.57-11.38,4.38-21.99,11.3-31.81,20.77l-43.63-47.32c26.64-30.49,65.54-45.74,116.71-45.74,31.9,0,60.11,6.22,84.64,18.66,24.54,12.44,43.46,29.7,56.77,51.78,13.33,22.08,19.98,47.13,19.98,75.18s-6.57,52.65-19.71,74.91c-13.14,22.25-31.19,39.6-54.15,52.04-22.95,12.44-48.63,18.66-77.02,18.66s-52.75-5.96-75.18-17.87c-22.42-11.92-40.04-29-52.83-51.26-12.79-22.26-19.19-48.1-19.19-77.54,0-1.05.52-8.41,1.58-22.08ZM1325.99,324.13c12.62-10.51,20.33-24.89,23.13-43.11h-139.31c2.81,17.88,10.51,32.15,23.13,42.85,12.62,10.69,28.04,16.03,46.26,16.03s34.17-5.26,46.79-15.77Z"/>
  </g>
  <circle class="cls-2" cx="355.64" cy="256.31" r="41.35"/>
</svg>