<?xml version="1.0" encoding="UTF-8"?>
<svg id="Capa_1" data-name="Capa 1" xmlns="http://www.w3.org/2000/svg" viewBox="0 0 1587.13 907.27">
  <defs>
    <style>
      .cls-1 {
        fill: #dd3454;
      }
    </style>
  </defs>
  <path class="cls-1" d="M1497.57,595.02h-82.1C1402.04,265.77,1130.77,1.38,798.01,0h-2.57C460.4,0,186.23,267.14,175.38,600.19,75.26,621.96,0,711.16,0,817.71v89.56h89.56s266.27,0,266.27,0h89.56v-89.56c0-100.36-66.76-185.35-158.18-213.09,8.51-273.34,233.35-492.68,508.24-492.68h2.1c271.18,1.12,492.56,215.36,505.9,483.07h-161.71v89.56c0,122.79,99.9,222.69,222.69,222.69,59.48,0,115.41-23.16,157.47-65.22,42.06-42.06,65.23-97.99,65.23-157.47v-89.56h-89.56ZM355.83,817.71H89.56c0-73.53,59.61-133.13,133.13-133.13s133.13,59.61,133.13,133.13ZM1364.44,817.71c-73.53,0-133.13-59.61-133.13-133.13h266.27c0,73.53-59.61,133.13-133.13,133.13Z"/>
</svg>